<?xml version="1.0" encoding="UTF-8"?>
<svg xmlns="http://www.w3.org/2000/svg" viewBox="0 0 256 256" width="256" height="256">
  <!-- Mcaster1DAWCast App Icon Placeholder -->
  <!-- Replace with final artwork -->
  <defs>
    <linearGradient id="bg" x1="0%" y1="0%" x2="100%" y2="100%">
      <stop offset="0%" style="stop-color:#1a1a2e"/>
      <stop offset="100%" style="stop-color:#0f3460"/>
    </linearGradient>
  </defs>
  <rect width="256" height="256" rx="48" fill="url(#bg)"/>
  <!-- Audio waveform -->
  <g stroke="#4ecdc4" stroke-width="3" fill="none" stroke-linecap="round">
    <line x1="48" y1="128" x2="48" y2="108"/>
    <line x1="58" y1="128" x2="58" y2="88"/>
    <line x1="68" y1="128" x2="68" y2="68"/>
    <line x1="78" y1="128" x2="78" y2="88"/>
    <line x1="88" y1="128" x2="88" y2="98"/>
    <line x1="98" y1="128" x2="98" y2="78"/>
    <line x1="108" y1="128" x2="108" y2="58"/>
    <line x1="118" y1="128" x2="118" y2="78"/>
    <line x1="128" y1="128" x2="128" y2="98"/>
    <line x1="48" y1="128" x2="48" y2="148"/>
    <line x1="58" y1="128" x2="58" y2="168"/>
    <line x1="68" y1="128" x2="68" y2="188"/>
    <line x1="78" y1="128" x2="78" y2="168"/>
    <line x1="88" y1="128" x2="88" y2="158"/>
    <line x1="98" y1="128" x2="98" y2="178"/>
    <line x1="108" y1="128" x2="108" y2="198"/>
    <line x1="118" y1="128" x2="118" y2="178"/>
    <line x1="128" y1="128" x2="128" y2="158"/>
  </g>
  <!-- Video play triangle -->
  <polygon points="158,98 208,128 158,158" fill="#e94560" opacity="0.9"/>
  <!-- Text -->
  <text x="128" y="230" font-family="Helvetica,Arial,sans-serif" font-size="22"
        font-weight="bold" fill="#ffffff" text-anchor="middle">DAWCast</text>
</svg>
